<svg xmlns="http://www.w3.org/2000/svg" width="15" height="10" fill="none"><path fill="#79818C" d="M14.918 4.578C14.784 4.391 11.562 0 7.5 0S.216 4.391.082 4.578a.438.438 0 000 .512c.134.187 3.356 4.578 7.418 4.578s7.284-4.391 7.418-4.578a.438.438 0 000-.512zM7.5 7.91a3.08 3.08 0 01-3.076-3.076A3.08 3.08 0 017.5 1.758a3.08 3.08 0 013.076 3.076A3.08 3.08 0 017.5 7.91z"/><path fill="#79818C" d="M7.5 3.516a1.32 1.32 0 00-1.318 1.318A1.32 1.32 0 007.5 6.152a1.32 1.32 0 001.318-1.318A1.32 1.32 0 007.5 3.516z"/></svg>