<svg width="48" height="48" fill="none" xmlns="http://www.w3.org/2000/svg"><path d="M11.25 24c0-2.378.655-4.606 1.793-6.514V9.395h-8.09C1.74 13.565 0 18.649 0 24c0 5.35 1.74 10.434 4.952 14.605h8.091v-8.092A12.672 12.672 0 0111.25 24z" fill="#FBBD00"/><path d="M24 36.75l-5.625 5.625L24 48c5.351 0 10.434-1.74 14.605-4.952v-8.083h-8.083A12.749 12.749 0 0124 36.75z" fill="#0F9D58"/><path d="M13.043 30.513l-8.09 8.092a24.382 24.382 0 002.076 2.366A23.843 23.843 0 0024 48V36.75c-4.652 0-8.73-2.505-10.957-6.237z" fill="#31AA52"/><path d="M48 24c0-1.46-.132-2.923-.393-4.348l-.211-1.153H24v11.25h11.386a12.692 12.692 0 01-4.864 5.216l8.083 8.083a24.377 24.377 0 002.366-2.077A23.843 23.843 0 0048 24z" fill="#3C79E6"/><path d="M33.016 14.984l.994.995 7.955-7.955-.994-.995A23.843 23.843 0 0024 0l-5.625 5.625L24 11.25c3.406 0 6.607 1.326 9.016 3.734z" fill="#CF2D48"/><path d="M24 11.25V0A23.843 23.843 0 007.03 7.03c-.75.749-1.442 1.54-2.078 2.365l8.091 8.091C15.27 13.755 19.348 11.25 24 11.25z" fill="#EB4132"/></svg>