<svg width="14" height="12" fill="none" xmlns="http://www.w3.org/2000/svg"><path d="M12.89 1.174A3.836 3.836 0 0010.09 0a3.6 3.6 0 00-2.2.732 4.412 4.412 0 00-.89.894 4.41 4.41 0 00-.89-.894A3.608 3.608 0 003.91 0c-1.08 0-2.075.417-2.8 1.174C.395 1.923 0 2.945 0 4.054c0 1.14.441 2.184 1.389 3.286.847.985 2.065 1.985 3.475 3.143.482.395 1.028.844 1.595 1.321A.84.84 0 007 12c.2 0 .391-.07.541-.196.567-.477 1.113-.926 1.595-1.321 1.41-1.158 2.628-2.158 3.476-3.143C13.559 6.238 14 5.194 14 4.053c0-1.108-.395-2.13-1.11-2.879z" fill="#FFE066"/></svg>