<svg width="48" height="48" fill="none" xmlns="http://www.w3.org/2000/svg"><g clip-path="url(#clip0)"><path d="M3 3.266c-3.772 3.918-3 8.08-3 20.724 0 10.5-1.832 21.026 7.756 23.504 2.994.77 29.522.77 32.512-.004 3.992-1.03 7.24-4.268 7.684-9.914.062-.788.062-26.37-.002-27.174C47.478 4.388 43.776.922 38.898.22 37.78.058 37.556.01 31.82 0 11.474.01 7.014-.896 3 3.266z" fill="url(#paint0_linear)"/><path d="M23.996 6.278c-7.262 0-14.158-.646-16.792 6.114-1.088 2.792-.93 6.418-.93 11.61 0 4.556-.146 8.838.93 11.608 2.628 6.764 9.58 6.116 16.788 6.116 6.954 0 14.124.724 16.79-6.116 1.09-2.82.93-6.392.93-11.608 0-6.924.382-11.394-2.976-14.75-3.4-3.4-7.998-2.974-14.748-2.974h.008zm-1.588 3.194c15.148-.024 17.076-1.708 16.012 21.686-.378 8.274-6.678 7.366-14.422 7.366-14.12 0-14.526-.404-14.526-14.53 0-14.29 1.12-14.514 12.936-14.526v.004zm11.048 2.942a2.126 2.126 0 100 4.252 2.126 2.126 0 000-4.252zm-9.46 2.486c-5.026 0-9.1 4.076-9.1 9.102a9.1 9.1 0 1018.198 0c0-5.026-4.072-9.102-9.098-9.102zm0 3.194c7.81 0 7.82 11.816 0 11.816-7.808 0-7.82-11.816 0-11.816z" fill="#fff"/></g><defs><linearGradient id="paint0_linear" x1="3.092" y1="44.934" x2="47.703" y2="6.324" gradientUnits="userSpaceOnUse"><stop stop-color="#FD5"/><stop offset=".5" stop-color="#FF543E"/><stop offset="1" stop-color="#C837AB"/></linearGradient><clipPath id="clip0"><path fill="#fff" d="M0 0h48v48H0z"/></clipPath></defs></svg>