<svg xmlns="http://www.w3.org/2000/svg" width="18" height="18" fill="none"><path fill="#79818C" fill-rule="evenodd" d="M9 .009c-.298 0-.595-.002-.89-.005C4.763-.02 1.706-.042.477 3.11c-.488 1.251-.482 2.833-.474 5L.004 9c0 .249 0 .496-.002.741-.007 2.029-.013 3.893.474 5.147 1.226 3.153 4.306 3.13 7.638 3.106a102.464 102.464 0 011.812.001c3.222.03 6.36.058 7.595-3.107.488-1.263.483-2.822.474-4.989v-.001L17.993 9c0-.337.002-.661.004-.976.016-2.965.027-4.967-1.514-6.506C14.935-.029 12.899-.015 10.025.004 9.693.006 9.351.01 8.996.01H9zm-.806 1.62c.511-.001.993-.006 1.447-.01 6.366-.06 7.185-.067 6.681 11.01-.174 3.81-2.827 3.781-6.256 3.743-.348-.003-.703-.007-1.065-.007-7.167 0-7.374-.205-7.374-7.37 0-7.249.569-7.362 6.567-7.368v.002zm4.53 2.57a1.079 1.079 0 112.157.001 1.079 1.079 0 01-2.158 0zM9 4.382a4.617 4.617 0 100 9.233 4.617 4.617 0 100-9.233zm0 1.62c3.965 0 3.97 5.993 0 5.993-3.963 0-3.97-5.993 0-5.993z" clip-rule="evenodd"/></svg>