<svg width="15" height="20" fill="none" xmlns="http://www.w3.org/2000/svg"><path d="M8.757 12.469A6.235 6.235 0 0015 6.234C15 2.797 12.2 0 8.757 0H2.472a.586.586 0 00-.587.586v8.2H.587A.586.586 0 000 9.372v2.51c0 .324.263.587.587.587h1.298v1.338H.587a.586.586 0 00-.587.586v2.51c0 .324.263.587.587.587h1.298v1.924c0 .324.263.586.587.586h2.514a.586.586 0 00.587-.586V17.49h3.812a.586.586 0 00.587-.586v-2.51a.586.586 0 00-.587-.587H5.573V12.47h3.184zM5.573 3.682h3.184a2.557 2.557 0 012.556 2.552 2.557 2.557 0 01-2.556 2.552H5.573V3.682z" fill="#fff"/></svg>