<svg width="48" height="48" fill="none" xmlns="http://www.w3.org/2000/svg"><path fill-rule="evenodd" clip-rule="evenodd" d="M16.632 0h14.736C44.816 0 48 3.184 48 16.632v14.736C48 44.816 44.816 48 31.368 48H16.632C3.184 48 0 44.816 0 31.368V16.632C0 3.184 3.184 0 16.632 0z" fill="#4680C2"/><path fill-rule="evenodd" clip-rule="evenodd" d="M39.294 16.53c.237-.744 0-1.286-1.05-1.286h-3.489c-.88 0-1.287.474-1.524.982 0 0-1.796 4.336-4.302 7.147-.813.813-1.186 1.084-1.626 1.084-.237 0-.542-.27-.542-1.016v-6.944c0-.88-.271-1.287-1.016-1.287h-5.488c-.542 0-.88.406-.88.813 0 .847 1.253 1.05 1.388 3.421v5.149c0 1.118-.203 1.321-.644 1.321-1.185 0-4.064-4.37-5.792-9.35-.339-.982-.678-1.354-1.558-1.354H9.248c-1.016 0-1.186.474-1.186.982 0 .915 1.186 5.522 5.522 11.619 2.879 4.166 6.978 6.402 10.67 6.402 2.236 0 2.507-.508 2.507-1.355v-3.15c0-1.016.203-1.186.914-1.186.508 0 1.423.271 3.49 2.27 2.37 2.371 2.777 3.455 4.098 3.455h3.49c1.016 0 1.49-.508 1.219-1.49-.305-.983-1.457-2.405-2.947-4.1-.813-.948-2.033-1.998-2.405-2.506-.508-.677-.373-.948 0-1.558-.034 0 4.234-6.03 4.674-8.062z" fill="#fff"/></svg>