<svg width="12" height="20" fill="none" xmlns="http://www.w3.org/2000/svg"><path d="M5.101 11.02v3.627H3.085a.904.904 0 00-.9.908c0 .502.403.908.9.908H5.1v1.629c0 .501.403.908.9.908a.904.904 0 00.898-.908v-1.629h2.017a.904.904 0 00.898-.908.904.904 0 00-.898-.908H6.899V11.02C9.229 10.591 11 8.527 11 6.052 11 3.266 8.757 1 6 1S1 3.266 1 6.052c0 2.475 1.772 4.54 4.101 4.968zm.9-8.204c1.765 0 3.201 1.452 3.201 3.236 0 1.784-1.436 3.235-3.202 3.235S2.798 7.836 2.798 6.052c0-1.784 1.436-3.236 3.202-3.236z" fill="#fff" stroke="#fff" stroke-width=".5"/></svg>